# xmcd
#
# Track frame offsets:
#	150
#	24011
#	61651
#	87610
#	116250
#	148603
#	174115
#	205134
#	235540
#	259818
#
# Disc length: 3769 seconds
#
# Revision: 0
# Processed by: cddbd v1.5.2PL0 Copyright (c) Steve Scherf et al.
# Submitted via: EasyCDDAExtractor 10.0.2.1
#
DISCID=730eb70a
DTITLE=Various Artist - Dupage AME Women's Day Songs 2007
DYEAR=2007
DGENRE=Gospel
TTITLE0=Chester D. T. Baldwin - Ready, Willing and Able
TTITLE1=Joe Pace - Halleleujah Anyhow
TTITLE2=Kurt Carr - One Word
TTITLE3=Various Artist - Give Him Your Life Today
TTITLE4=The Tri City Singers - When The Saints To To Worship
TTITLE5=Mississippi Mass Choir - They Got The Word
TTITLE6=Various Artist - Receive Our Praise
TTITLE7=Ricky Dillard and N.G Chorale - We Worship Christ
TTITLE8=Various Artist - 27th Psalms
TTITLE9=Various Artist - He Answers Prayer
EXTD=
EXTT0=
EXTT1=
EXTT2=
EXTT3=
EXTT4=
EXTT5=
EXTT6=
EXTT7=
EXTT8=
EXTT9=
PLAYORDER=
